<?xml version="1.0" standalone="no"?>
<!DOCTYPE svg PUBLIC "-//W3C//DTD SVG 20010904//EN"
 "http://www.w3.org/TR/2001/REC-SVG-20010904/DTD/svg10.dtd">
<svg version="1.0" xmlns="http://www.w3.org/2000/svg"
 width="600.000000pt" height="600.000000pt" viewBox="0 0 600.000000 600.000000"
 preserveAspectRatio="xMidYMid meet">
  <rect id="dee_c_e" x="0" y="0" width="600" height="600" rx="100" fill="#e2e8f0" />
<g transform="translate(0.000000,600.000000) scale(0.050000,-0.050000)"
fill="#484848" stroke="none">
<path d="M6470 11327 c-55 -28 -179 -95 -275 -149 -196 -110 -216 -114 -322
-60 -80 41 -129 36  -243 -27 -52 -28 -103 -31 -362 -19 l-302 13 -468 -215
c-922 -424 -743 -287 -1399 -1070 -636 -759 -588 -691 -647 -940 -121 -520
-395 -1988 -379 -2030 6 -17 143 -153 304 -303 l293 -272 197 12 c181 11 196
9 182 -23 -75 -176 -56 -282 80 -448 148 -179 155 -233 44 -351 -70 -75 -43
-86 80 -35 40 17 74 30 77 30 3 0 10 -36 16 -81 35 -263 363 -387 639 -242 63
34 115 56 115 50 0 -28 -102 -441 -119 -479 -17 -41 -28 -42 -259 -32 -176 7
-249 3 -271 -16 -85 -70 -280 -469 -353 -719 -33 -115 -56 -149 -195 -290
-371 -380 -713 -838 -1111 -1490 -186 -305 -188 -320 -27 -232 1099 603 2476
432 4793 -597 213 -95 393 -172 399 -172 7 0 -78 90 -187 201 -332 334 -720
618 -1370 1003 -181 107 -323 196 -314 196 26 0 504 -194 615 -251 152 -77
139 -59 -128 170 -282 241 -267 245 72 19 461 -307 985 -710 1645 -1265 518
-436 1007 -665 1245 -582 301 106 -521 1502 -1431 2433 l-347 353 57 127 c100
223 94 219 178 120 89 -105 161 -144 266 -144 l80 0 -30 72 c-41 97 -23 107
32 18 92 -148 309 -236 475 -191 93 25 106 48 45 81 -21 11 -49 39 -61 62 -25
47 63 6 199 -93 40 -29 95 -49 135 -49 107 0 136 -48 205 -343 79 -333 184
-556 390 -826 l152 -200 0 -217 c0 -143 10 -240 28 -281 15 -35 32 -78 38 -95
43 -131 1002 91 1267 293 137 105 136 96 143 1109 4 501 8 953 10 1005 7 187
-29 197 -766 226 l-370 15 -62 -53 c-40 -33 -87 -111 -129 -213 -36 -88 -73
-160 -81 -160 -54 0 -19 131 108 405 l71 155 201 0 c110 0 313 -10 451 -22
384 -32 374 -16 -89 145 -501 174 -724 208 -803 122 -50 -53 -336 -520 -362
-590 -16 -40 -75 -26 -75 17 0 39 317 682 354 720 23 22 60 27 153 19 l123
-11 -100 48 c-183 88 -162 96 -402 -153 -147 -152 -240 -267 -286 -355 -37
-72 -71 -134 -75 -138 -8 -10 -187 -38 -187 -30 0 4 45 95 100 204 55 109 100
207 100 219 0 12 56 69 125 127 69 59 173 150 231 204 96 89 112 97 175 85
207 -39 142 333 -98 564 -160 153 -175 190 -105 263 60 63 63 83 23 161 l-30
57 87 21 c173 44 227 308 103 510 -39 65 -71 120 -71 123 0 2 70 15 155 29
371 58 412 123 264 424 -60 121 -116 225 -125 231 -9 5 30 -82 86 -194 121
-241 125 -233 -86 -201 -157 25 -391 20 -577 -11 -62 -10 -77 -5 -97 32 -92
172 152 227 481 108 74 -26 140 -48 148 -48 15 0 -3 32 -321 592 -293 515
-279 446 -124 596 98 95 142 156 174 240 62 166 56 193 -24 116 -82 -80 -83
-80 -87 11 -1 42 -19 111 -39 155 l-37 80 -6 -82 c-17 -199 -151 -221 -430
-71 -277 150 -431 151 -745 2 -148 -70 -149 -68 -69 75 81 142 319 382 434
436 46 22 85 45 85 52 0 20 -221 -20 -348 -62 -154 -51 -155 -46 -34 100 214
257 222 447 21 550 -93 48 -136 40 -84 -15 83 -88 101 -220 38 -272 -17 -14
-23 4 -23 67 0 108 -33 146 -211 239 -216 114 -191 142 121 140 264 -2 407
-68 432 -201 l13 -71 57 55 c31 30 72 93 92 140 32 77 41 84 90 74 133 -26
217 117 167 284 -16 54 -26 101 -22 105 27 28 141 -213 230 -485 118 -357 141
-390 273 -390 90 0 118 28 50 49 -74 24 -62 65 29 100 339 130 331 551 -13
642 -58 15 -124 46 -147 69 l-41 41 66 -22 c68 -24 194 -11 214 22 7 11 -22
19 -68 19 -58 0 -95 14 -136 51 -44 41 -47 47 -12 30 64 -31 70 -27 57 34 -7
30 1 100 18 154 37 124 33 127 -69 54 -152 -111 -564 -186 -633 -116 -51 52
276 253 436 269 111 10 111 11 57 100 -79 129 -320 187 -427 103 -29 -23 -89
-113 -135 -201 -115 -220 -454 -506 -725 -610 -144 -55 88 338 268 455 56 36
126 106 161 161 35 53 88 115 120 138 32 22 58 47 58 55 0 24 -257 143 -309
143 -118 0 -652 -315 -1108 -654 -293 -218 -252 -153 176 275 209 208 369 349
487 427 97 64 173 119 170 122 -11 10 -449 90 -488 89 -21 0 -83 -24 -138 -52z
m-1344 -782 c-163 -190 -353 -443 -586 -776 -121 -173 -220 -309 -220 -301 0
118 389 676 688 987 219 228 267 264 118 90z m1794 -216 c0 -160 -535 -688
-556 -550 -20 129 199 429 376 516 84 42 180 60 180 34z m920 -71 l90 -40 -50
-39 c-141 -108 -349 -146 -553 -100 -126 28 -129 36 -39 97 180 123 393 155
552 82z m754 -127 c182 -68 277 -213 224 -341 l-25 -60 -12 93 c-16 117 -41
147 -161 187 -89 29 -200 114 -200 151 0 9 -6 32 -14 52 -12 32 -8 32 39 -5
28 -23 95 -58 149 -77z m-1731 -433 c136 -72 -277 -338 -527 -338 -139 0 -140
6 -28 145 168 206 389 282 555 193z m-795 -193 c-50 -204 -430 -630 -501 -559
-17 18 52 237 103 324 121 207 436 393 398 235z m-688 -366 c-53 -157 -134
-277 -288 -423 -140 -134 -150 -133 -131 12 31 223 176 447 344 530 111 55
126 32 75 -119z m1060 -99 c39 -11 124 -60 190 -110 65 -49 140 -90 165 -90
53 0 56 -15 16 -73 -73 -103 -274 -137 -421 -70 -82 38 -300 246 -300 287 0
57 221 93 350 56z m-495 -295 c92 -36 92 -47 10 -116 -156 -132 -414 -175
-670 -111 -123 30 -127 41 -40 107 216 164 475 209 700 120z m-1237 -30 c-34
-193 -381 -688 -440 -629 -25 24 27 286 75 379 120 235 395 424 365 250z
m-639 -480 c-32 -195 -127 -373 -285 -539 -85 -90 -104 -83 -104 42 0 206 113
420 276 524 120 76 130 74 113 -27z m1461 -64 c400 -125 455 -288 171 -507
-92 -70 -118 -72 -83 -7 12 22 22 88 22 146 l0 106 -175 167 c-96 92 -157 162
-135 156 22 -6 112 -33 200 -61z m-492 -127 c138 -53 119 -109 -68 -211 -98
-53 -427 -62 -559 -15 l-79 28 94 85 c159 144 411 190 612 113z m912 -354 c0
-217 10 -246 102 -304 33 -21 29 -24 -39 -25 -164 -2 -240 162 -151 327 23 43
43 117 45 164 7 179 43 42 43 -162z m1544 98 c75 -17 179 -28 231 -23 110 11
111 9 46 -75 l-49 -65 48 -21 c46 -21 58 -54 75 -204 5 -45 11 -40 64 48 l58
98 34 -98 c18 -54 62 -154 97 -224 l63 -125 -79 -136 c-104 -177 -183 -378
-263 -669 l-65 -236 -64 91 c-216 304 -230 667 -35 907 74 90 81 105 42 91
-251 -91 -701 158 -867 478 -89 170 161 180 502 19 121 -57 226 -104 234 -104
7 0 -51 63 -131 139 -159 153 -155 159 59 109z m-3239 -161 c169 -45 -241
-384 -530 -439 -157 -29 -162 -20 -68 125 160 247 393 369 598 314z m-803
-322 c-21 -193 -284 -617 -354 -574 -90 56 25 415 184 574 153 153 188 153
170 0z m1022 -155 c134 -40 159 -71 101 -124 -151 -138 -383 -158 -629 -56
l-74 31 79 54 c171 117 344 148 523 95z m-623 -512 c118 -60 119 -76 8 -138
-124 -69 -321 -70 -487 -1 l-118 48 58 47 c138 112 371 131 539 44z m2482
-184 c208 -106 273 -290 166 -465 -86 -141 -114 -144 -111 -11 3 148 -37 208
-192 292 -132 71 -190 120 -228 194 -38 73 -38 146 0 78 17 -31 31 -39 41 -24
7 12 21 18 31 12 31 -19 80 14 80 54 0 36 7 33 56 -19 30 -33 101 -83 157
-111z m2267 -178 c0 -12 -18 -6 -40 14 -22 20 -40 60 -40 88 0 51 1 51 40 -13
22 -36 40 -76 40 -89z m-171 -154 c42 -117 23 -128 -61 -37 -74 80 -92 193
-45 280 21 40 25 35 49 -56 14 -54 40 -139 57 -187z m83 86 c40 -95 26 -105
-40 -27 -32 38 -52 86 -52 125 0 75 36 37 92 -98z m-181 -218 l16 -40 -46 40
c-65 56 -106 162 -90 234 12 57 15 54 58 -67 26 -70 53 -145 62 -167z m-133
74 c23 -58 42 -148 42 -199 l0 -94 -70 109 c-84 131 -102 213 -69 314 25 73
26 74 40 26 8 -27 33 -98 57 -156z m-1175 -118 c15 -18 99 -66 187 -107 234
-109 265 -151 104 -142 l-124 7 53 -57 c81 -87 117 -176 116 -281 l-2 -96 -36
80 c-48 106 -127 177 -263 237 -203 90 -276 261 -186 439 62 120 73 125 100
35 13 -45 36 -97 51 -115z m1096 -197 c1 -63 -56 -168 -59 -109 -1 17 -20 -6
-41 -50 -84 -168 -100 -158 -88 61 15 273 21 316 61 400 l34 73 46 -157 c26
-86 47 -185 47 -218z m-1789 2 c197 -82 189 -401 -13 -550 -75 -55 -79 -51
-52 50 54 204 -96 409 -299 409 -48 0 -51 4 -25 29 91 90 259 117 389 62z
m454 -519 c26 -17 87 -45 136 -62 279 -98 336 -414 113 -628 l-71 -68 10 138
c13 175 -28 251 -168 312 -203 88 -245 188 -171 407 l34 98 35 -83 c19 -46 56
-97 82 -114z m1648 118 c128 -98 164 -245 88 -360 l-40 -60 0 76 c0 103 -26
145 -126 206 -104 64 -134 102 -134 164 0 65 111 51 212 -26z m-832 -259 c0
-46 118 -169 202 -212 105 -53 181 -160 193 -270 l10 -90 -70 70 c-91 91 -132
93 -77 4 58 -93 53 -99 -29 -44 -39 27 -104 59 -145 73 -206 66 -300 266 -158
334 49 24 54 34 42 95 -8 45 -5 69 10 69 12 0 22 -13 22 -29z m1905 -1431 c36
-22 88 -40 115 -40 137 -1 148 -22 43 -82 -118 -67 -174 -140 -194 -249 -13
-75 -76 -169 -114 -169 -9 0 -3 20 14 44 40 58 40 174 -1 275 -30 76 -30 82
10 133 23 29 42 70 42 91 0 46 4 46 85 -3z m-304 -684 c15 -95 13 -95 -45 9
-27 47 -65 112 -87 145 l-38 60 79 -69 c59 -50 83 -88 91 -145z"/>
<path d="M8898 6268 c-127 -136 -44 -501 204 -896 l118 -189 0 -219 c0 -151 8
-225 25 -239 21 -17 408 -194 655 -299 l70 -30 -48 51 c-39 43 -59 118 -122
462 -79 427 -87 449 -227 616 -112 133 -113 104 -3 -61 98 -147 124 -249 157
-624 10 -112 1 -89 -66 169 -66 252 -91 315 -159 410 -253 346 -541 828 -513
857 6 6 35 -11 64 -38 l52 -48 -33 65 c-41 81 -106 86 -174 13z"/>
</g>
</svg>
