<?xml version="1.0" standalone="no"?>
<!DOCTYPE svg PUBLIC "-//W3C//DTD SVG 20010904//EN"
 "http://www.w3.org/TR/2001/REC-SVG-20010904/DTD/svg10.dtd">
<svg version="1.0" xmlns="http://www.w3.org/2000/svg"
 width="1000.000000pt" height="1000.000000pt" viewBox="50 200 1550.000000 1200.000000"
 preserveAspectRatio="xMidYMid meet">

<rect width="100%" height="120%" fill="#a78247"/>

<g transform="translate(0.000000,1456.000000) scale(0.100000,-0.100000)"
fill="#333333" stroke="#a78247" stroke-width="">
<path d="M0 7280 l0 -7280 8600 0 8600 0 0 7280 0 7280 -8600 0 -8600 0 0
-7280z m8890 5710 c1224 -110 2315 -567 3241 -1357 147 -125 467 -445 592
-592 379 -444 699 -956 912 -1459 l52 -123 102 176 c71 121 108 175 120 175
36 0 320 -83 451 -132 349 -130 603 -302 748 -505 43 -60 90 -168 112 -258 19
-77 22 -107 17 -210 -7 -146 -35 -254 -108 -405 -163 -339 -480 -689 -965
-1064 -68 -52 -74 -66 -74 -186 0 -79 -15 -253 -35 -415 -142 -1120 -594
-2141 -1332 -3006 -125 -147 -445 -467 -592 -592 -864 -737 -1877 -1187 -3001
-1331 -242 -31 -395 -40 -705 -40 -310 0 -463 9 -705 40 -1124 144 -2137 594
-3001 1331 -147 125 -467 445 -592 592 -182 213 -377 478 -517 703 -53 84 -55
86 -100 93 -836 115 -1415 366 -1668 722 -43 60 -90 168 -112 258 -30 120 -24
285 14 420 48 165 172 391 310 564 120 150 374 411 400 411 3 0 45 -23 93 -51
48 -29 126 -74 172 -101 l84 -49 -7 33 c-37 187 -54 876 -28 1158 71 763 257
1431 576 2068 289 578 616 1033 1071 1487 454 455 909 782 1487 1071 700 350
1421 537 2273 588 105 6 596 -3 715 -14z"/>
<path d="M8071 12399 c-392 -25 -826 -110 -1226 -239 -1119 -364 -2093 -1124
-2717 -2121 -571 -912 -836 -1959 -768 -3034 43 -671 214 -1311 516 -1922 l94
-193 158 -2 c746 -8 1372 35 2172 148 170 24 214 30 485 74 1102 179 2426 508
3560 885 743 247 1322 474 1995 781 108 49 548 269 660 329 108 59 459 262
484 281 19 13 19 21 8 226 -20 363 -64 648 -152 993 -370 1446 -1374 2666
-2725 3311 -494 236 -1028 391 -1585 459 -265 33 -663 43 -959 24z m-488
-1032 c3 -12 8 -62 12 -112 4 -49 8 -100 10 -113 2 -13 7 -69 11 -125 3 -56 8
-105 10 -108 2 -4 -27 -10 -64 -14 -235 -24 -623 -119 -744 -181 -15 -8 -30
-14 -33 -14 -30 5 -275 -113 -435 -210 -73 -44 -136 -80 -140 -80 -5 0 -10 -4
-12 -9 -1 -4 -43 -37 -93 -71 -139 -98 -216 -163 -364 -310 -92 -90 -291 -320
-291 -335 0 -3 -15 -25 -32 -48 -18 -23 -37 -49 -43 -58 -5 -9 -26 -41 -46
-70 -19 -30 -38 -61 -42 -69 -4 -8 -16 -28 -27 -45 -11 -16 -24 -40 -29 -52
-5 -11 -15 -24 -21 -28 -5 -3 -8 -10 -5 -15 3 -5 1 -11 -5 -15 -8 -5 -52 -89
-55 -105 0 -3 -15 -34 -32 -70 -49 -99 -149 -381 -167 -470 -3 -14 -14 -61
-24 -105 -31 -126 -56 -286 -68 -435 -8 -97 -7 -454 1 -479 5 -16 -10 -19
-142 -30 -82 -7 -166 -14 -188 -16 -164 -18 -155 -18 -156 12 -1 15 -3 39 -5
53 -12 88 -5 462 12 603 11 99 15 124 19 147 2 14 7 45 11 70 3 24 7 47 9 50
2 3 6 24 9 46 22 145 127 492 198 654 20 44 25 57 66 150 11 25 21 50 22 55 1
6 7 17 14 25 7 8 30 50 52 93 39 79 51 100 82 149 9 15 36 58 60 97 24 38 50
75 58 82 8 6 14 16 14 22 0 6 17 31 38 56 21 25 45 58 54 72 70 111 513 569
550 569 4 0 8 4 8 8 0 5 43 40 95 78 52 38 95 72 95 76 0 5 7 8 15 8 8 0 15 5
15 10 0 6 7 10 15 10 8 0 15 5 15 10 0 6 7 10 15 10 8 0 15 5 15 10 0 6 7 10
15 10 8 0 15 5 15 10 0 6 7 10 15 10 8 0 15 5 15 10 0 6 7 10 15 10 8 0 15 5
15 10 0 6 7 10 15 10 8 0 15 4 15 10 0 5 3 9 8 8 4 -2 50 23 103 54 103 61
327 168 467 222 201 78 365 126 587 170 6 2 35 8 65 14 68 14 118 21 195 28
33 4 61 7 62 8 1 1 13 2 26 4 18 1 26 -4 30 -21z"/>
<path d="M13740 9330 c0 -4 16 -52 36 -106 127 -353 233 -806 279 -1199 22
-191 25 -205 34 -205 4 0 65 55 135 121 187 179 294 317 366 473 50 107 64
173 58 284 -4 79 -9 99 -40 164 -81 164 -272 298 -556 392 -125 42 -312 87
-312 76z"/>
<path d="M13320 6678 c-235 -139 -391 -223 -710 -381 -245 -122 -310 -154
-490 -235 -520 -236 -1058 -446 -1680 -657 -595 -201 -1246 -388 -1935 -554
-736 -177 -1790 -358 -2415 -416 -36 -3 -81 -8 -100 -10 -57 -8 -515 -43 -640
-50 -63 -3 -159 -8 -212 -11 -53 -3 -261 -6 -462 -6 l-365 0 27 -37 c380 -512
853 -951 1383 -1283 723 -453 1531 -714 2374 -768 1974 -125 3821 886 4778
2617 283 511 488 1117 572 1693 24 168 26 180 18 179 -5 0 -69 -37 -143 -81z"/>
<path d="M2706 6360 c-171 -166 -277 -305 -346 -454 -50 -107 -64 -173 -58
-284 4 -79 9 -99 40 -164 101 -203 361 -355 773 -453 77 -18 141 -32 143 -30
1 1 -27 73 -62 159 -163 389 -286 804 -351 1181 -29 170 -15 165 -139 45z"/>
</g>
</svg>
